<svg xmlns="http://www.w3.org/2000/svg" viewBox="0 0 100 24" fill="none">
  <circle cx="12" cy="12" r="11" fill="#010101"/>
  <path d="M16.5 6.5c-.8-.5-1.3-1.4-1.5-2.3h-2.5v10.6c0 1.3-1.1 2.4-2.4 2.4s-2.4-1.1-2.4-2.4 1.1-2.4 2.4-2.4c.3 0 .5 0 .7.1V10c-.2 0-.5-.1-.7-.1-2.8 0-5 2.2-5 5s2.2 5 5 5 5-2.2 5-5V9.8c1 .7 2.1 1.1 3.4 1.1V8.4c-1 0-1.8-.4-2.5-1z" fill="#25F4EE"/>
  <path d="M16.5 6.5c-.8-.5-1.3-1.4-1.5-2.3h-2.5v10.6c0 1.3-1.1 2.4-2.4 2.4s-2.4-1.1-2.4-2.4 1.1-2.4 2.4-2.4c.3 0 .5 0 .7.1V10c-.2 0-.5-.1-.7-.1-2.8 0-5 2.2-5 5s2.2 5 5 5 5-2.2 5-5V9.8c1 .7 2.1 1.1 3.4 1.1V8.4c-1 0-1.8-.4-2.5-1z" fill="#FE2C55" opacity="0.6"/>
  <text x="28" y="17" font-family="Helvetica,Arial,sans-serif" font-weight="700" font-size="14" fill="white">TikTok</text>
</svg>
